<svg width="25" height="25" viewBox="0 0 25 25" fill="none" xmlns="http://www.w3.org/2000/svg">
<path d="M7.14844 17.3047L11.9531 12.5L7.14844 7.69531L7.69531 7.14844L12.5 11.9531L17.3047 7.14844L17.8516 7.69531L13.0469 12.5L17.8516 17.3047L17.3047 17.8516L12.5 13.0469L7.69531 17.8516L7.14844 17.3047ZM25 0.390625V24.6094C25 24.8438 24.8438 25 24.6094 25H0.390625C0.15625 25 0 24.8438 0 24.6094V0.390625C0 0.15625 0.15625 0 0.390625 0H24.6094C24.8438 0 25 0.15625 25 0.390625ZM24.2188 0.78125H0.78125V24.2188H24.2188V0.78125Z" fill="white"/>
</svg>
