<svg width="30" height="32" viewBox="0 0 38 40" fill="none" xmlns="http://www.w3.org/2000/svg">
<path d="M12.8957 32.2079C12.8957 32.3734 12.7229 32.5057 12.505 32.5057C12.2571 32.5305 12.0843 32.3982 12.0843 32.2079C12.0843 32.0425 12.2571 31.9102 12.4749 31.9102C12.7003 31.8854 12.8957 32.0177 12.8957 32.2079ZM10.5591 31.8357C10.5066 32.0012 10.6568 32.1914 10.8822 32.241C11.0775 32.3237 11.3029 32.241 11.348 32.0756C11.3931 31.9102 11.2503 31.7199 11.025 31.6455C10.8296 31.5876 10.6117 31.6703 10.5591 31.8357ZM13.8799 31.6951C13.662 31.753 13.5117 31.9102 13.5343 32.1004C13.5568 32.2658 13.7521 32.3734 13.9775 32.3155C14.1954 32.2576 14.3457 32.1004 14.3231 31.935C14.3006 31.7778 14.0977 31.6703 13.8799 31.6951ZM18.8234 0C8.40294 0 0.431732 8.70954 0.431732 20.1817C0.431732 29.3544 5.67575 37.2037 13.1661 39.9663C14.1278 40.1565 14.4659 39.5031 14.4659 38.9655C14.4659 38.4527 14.4433 35.6239 14.4433 33.887C14.4433 33.887 9.18428 35.1277 8.07989 31.4222C8.07989 31.4222 7.22341 29.0153 5.99129 28.3949C5.99129 28.3949 4.27083 27.0964 6.1115 27.1212C6.1115 27.1212 7.98222 27.2866 9.01149 29.2551C10.6568 32.4478 13.4141 31.5297 14.4884 30.9838C14.6612 29.6604 15.1495 28.7423 15.6905 28.1964C11.4908 27.6836 7.25346 27.0136 7.25346 19.0568C7.25346 16.7822 7.82445 15.6408 9.02651 14.1851C8.83118 13.6474 8.19258 11.4308 9.22185 8.56893C10.792 8.03131 14.4058 10.8021 14.4058 10.8021C15.9083 10.339 17.5236 10.0991 19.1239 10.0991C20.7241 10.0991 22.3394 10.339 23.842 10.8021C23.842 10.8021 27.4557 8.02304 29.0259 8.56893C30.0552 11.439 29.4166 13.6474 29.2212 14.1851C30.4233 15.6491 31.1596 16.7905 31.1596 19.0568C31.1596 27.0385 26.7345 27.6753 22.5347 28.1964C23.2259 28.8498 23.8119 30.0905 23.8119 32.0342C23.8119 34.8216 23.7894 38.2707 23.7894 38.9489C23.7894 39.4866 24.135 40.14 25.0891 39.9498C32.6021 37.2037 37.6958 29.3544 37.6958 20.1817C37.6958 8.70954 29.2438 0 18.8234 0ZM7.73429 28.5273C7.63662 28.61 7.65916 28.8002 7.78688 28.9574C7.90709 29.0897 8.07989 29.1476 8.17755 29.0401C8.27522 28.9574 8.25268 28.7671 8.12496 28.61C8.00476 28.4776 7.83196 28.4197 7.73429 28.5273ZM6.9229 27.8573C6.87031 27.9648 6.94543 28.0972 7.09569 28.1799C7.2159 28.2626 7.36616 28.2378 7.41875 28.122C7.47134 28.0145 7.39621 27.8821 7.24595 27.7994C7.09569 27.7498 6.97549 27.7746 6.9229 27.8573ZM9.35708 30.8018C9.23687 30.9094 9.28195 31.1575 9.45475 31.3147C9.62755 31.5049 9.84542 31.5297 9.94309 31.3974C10.0408 31.2898 9.99568 31.0417 9.84542 30.8846C9.68014 30.6943 9.45475 30.6695 9.35708 30.8018ZM8.50061 29.586C8.3804 29.6687 8.3804 29.8837 8.50061 30.074C8.62082 30.2642 8.82366 30.3469 8.92133 30.2642C9.04154 30.1567 9.04154 29.9416 8.92133 29.7514C8.81615 29.5612 8.62082 29.4785 8.50061 29.586Z" fill="#E7D9EA"/>
</svg>
