<svg width="30" height="32" viewBox="0 0 38 40" fill="none" xmlns="http://www.w3.org/2000/svg">
<path d="M34.448 0H3.29737C1.87 0 0.710266 1.29464 0.710266 2.88393V37.1161C0.710266 38.7054 1.87 40 3.29737 40H34.448C35.8754 40 37.0433 38.7054 37.0433 37.1161V2.88393C37.0433 1.29464 35.8754 0 34.448 0ZM11.6913 34.2857H6.3062V15.1964H11.6994V34.2857H11.6913ZM8.99873 12.5893C7.27129 12.5893 5.87636 11.0446 5.87636 9.15179C5.87636 7.25893 7.27129 5.71429 8.99873 5.71429C10.7181 5.71429 12.1211 7.25893 12.1211 9.15179C12.1211 11.0536 10.7262 12.5893 8.99873 12.5893V12.5893ZM31.8772 34.2857H26.4921V25C26.4921 22.7857 26.4515 19.9375 23.6941 19.9375C20.8881 19.9375 20.4582 22.3482 20.4582 24.8393V34.2857H15.0732V15.1964H20.2392V17.8036H20.3122C21.034 16.3036 22.7939 14.7232 25.4135 14.7232C30.8634 14.7232 31.8772 18.6786 31.8772 23.8214V34.2857V34.2857Z" fill="#E7D9EA"/>
</svg>
