<svg width="25" height="25" viewBox="0 0 35 35" fill="none" xmlns="http://www.w3.org/2000/svg">
<path d="M26.8742 0H10.357C9.26832 0 8.38262 0.872278 8.38262 1.94444V2.33333H2.45948C1.37081 2.33333 0.485107 3.20561 0.485107 4.27778V33.0556C0.485107 34.1277 1.37081 35 2.45948 35H24.5725C25.6612 35 26.5469 34.1277 26.5469 33.0556V32.6667H32.47C33.5587 32.6667 34.4444 31.7944 34.4444 30.7222V7.45539L26.8742 0ZM27.3366 2.65572L31.7478 7H27.7315C27.5175 7 27.3366 6.82189 27.3366 6.61111V2.65572ZM24.9674 33.0556C24.9674 33.2698 24.7901 33.4444 24.5725 33.4444H2.45948C2.24191 33.4444 2.06461 33.2698 2.06461 33.0556V4.27778C2.06461 4.0635 2.24191 3.88889 2.45948 3.88889H8.38262V12.0556H5.61849V13.6111H8.38262V15.9444H5.61849V17.5H8.38262V19.8333H5.61849V21.3889H8.38262V23.7222H5.61849V25.2778H8.38262V30.7222C8.38262 31.7944 9.26832 32.6667 10.357 32.6667H24.9674V33.0556ZM32.47 31.1111H10.357C10.1394 31.1111 9.96212 30.9365 9.96212 30.7222V1.94444C9.96212 1.73017 10.1394 1.55556 10.357 1.55556H25.7571V6.61111C25.7571 7.68328 26.6428 8.55556 27.7315 8.55556H32.8649V30.7222C32.8649 30.9365 32.6876 31.1111 32.47 31.1111ZM13.516 9.72222H29.311V11.2778H13.516V9.72222ZM13.516 13.6111H29.311V15.1667H13.516V13.6111ZM13.516 17.5H29.311V19.0556H13.516V17.5ZM13.516 21.3889H29.311V22.9444H13.516V21.3889Z" fill="white"/>
</svg>
